<?xml version="1.0" encoding="utf-8"?>
<!-- Svg Vector Icons : http://www.onlinewebfonts.com/icon -->
<!DOCTYPE svg PUBLIC "-//W3C//DTD SVG 1.1//EN" "http://www.w3.org/Graphics/SVG/1.1/DTD/svg11.dtd">
<svg version="1.1" xmlns="http://www.w3.org/2000/svg" xmlns:xlink="http://www.w3.org/1999/xlink" x="0px" y="0px" viewBox="0 0 1000 1000" enable-background="new 0 0 1000 1000" xml:space="preserve">
<metadata> Svg Vector Icons : http://www.onlinewebfonts.com/icon </metadata>
<g><g transform="translate(0.000000,511.000000) scale(0.100000,-0.100000)"><path d="M3405.9,4336c-47.9-11.5-126.6-46-174.5-74.8c-53.7-30.7-667.5-634.9-1559.4-1532.5C18.6,1063.9,99.2,1159.8,101.1,881.6c0-193.7,46-293.4,214.8-473.8c170.7-180.3,312.6-249.3,512.1-249.3c126.6,0,163,7.7,264.7,59.5l118.9,59.5l42.2-51.8c23-30.7,186-243.6,358.7-475.7c174.5-232.1,352.9-466.1,395.1-521.7l78.6-97.8L1961.6-998c-136.2-140-239.8-283.9-305-427.7c-34.5-72.9-42.2-124.7-42.2-272.4c0-166.9,3.8-189.9,55.6-278.1c69-117,1895-1958.3,2025.4-2042.7c145.8-92.1,241.7-120.8,431.6-120.8c262.8-1.9,537,107.4,801.7,322.2l128.5,105.5l130.4-94c272.4-195.6,510.2-280,769.1-266.6c295.4,13.4,479.5,147.7,579.2,418.1c38.4,107.4,46,115.1,134.3,143.9c258.9,86.3,489.1,316.5,581.2,581.2c21.1,59.5,36.4,69.1,161.1,109.3c297.3,94,483.4,280,558.2,558.1c21.1,78.6,21.1,78.6,132.3,90.1c364.4,32.6,594.6,272.4,613.8,634.9c9.6,195.6-21.1,316.5-130.4,496.8l-80.6,132.4l103.6,107.4C8841.6-555,8981.6-267.3,9018,39.6l13.4,118.9h141.9c197.6,0,339.5,69.1,510.2,249.3c168.8,178.4,214.8,278.1,214.8,473.8c3.8,274.3,82.5,180.3-1593.9,1866.2C6624.3,4437.7,6724.1,4351.4,6438.3,4353.3c-197.6,0-310.7-57.5-502.5-253.2c-182.2-189.9-234-310.7-222.5-514c11.5-165,61.4-270.4,193.7-406.6c61.4-63.3,92.1-107.4,80.6-118.9c-11.5-9.6-222.5-153.4-469.9-316.5l-450.7-299.2l-48,53.7c-26.9,30.7-117,134.3-199.5,232.1c-84.4,95.9-251.3,270.4-372.1,387.4L4228.7,3331l32.6,113.2c76.7,249.3,1.9,464.2-237.8,694.3c-130.4,124.7-170.7,151.5-280,184.1C3597.7,4368.6,3532.5,4370.5,3405.9,4336z M3670.6,4034.9c63.3-23,247.4-197.5,285.8-270.4c32.6-63.3,34.5-212.9,3.8-270.4c-34.5-65.2-2907.7-2951.9-2986.4-2999.8c-82.5-51.8-189.9-57.5-280-13.4c-76.7,36.4-251.3,214.8-278.1,285.8c-26.9,72.9-23,195.6,7.7,255.1c32.6,57.5,2953.8,2980.6,3013.2,3013.2C3486.4,4061.7,3601.5,4061.7,3670.6,4034.9z M6568.7,4029.1c80.6-44.1,2992.1-2967.2,3015.2-3028.6c24.9-69.1,24.9-168.8,0-234c-26.9-71-201.4-249.3-278.1-285.8c-90.2-44.1-197.6-38.4-282,13.4c-74.8,44.1-2942.2,2923.1-2982.5,2994c-32.6,55.6-30.7,212.9,1.9,276.2c36.4,69,220.6,247.4,280,270.4C6394.2,4061.7,6509.3,4059.8,6568.7,4029.1z M4313.1,2822.7c253.2-251.3,510.2-542.8,492.9-558.1c-3.8-1.9-115.1-80.6-247.4-174.6c-820.9-579.2-1114.4-855.4-1292.8-1221.8c-101.7-207.1-138.1-372.1-109.3-508.3c59.5-303,303.1-425.8,796-402.8c514,23,934.1,222.5,1114.4,529.4c32.6,53.7,65.2,97.8,72.9,97.8c9.6,0,88.2-24.9,176.5-55.6c437.3-155.4,803.7-155.4,1049.1-3.8l94,59.5l732.7-684.7c402.8-375.9,820.9-767.2,928.3-872.7c235.9-228.3,293.5-328,293.5-508.3c0-141.9-30.7-224.4-107.4-297.3c-74.8-69-141.9-92.1-272.4-92.1h-109.3l-863.1,863.1l-863.1,863.1L6093.1-250l-105.5-105.5l849.7-849.7c665.6-665.6,847.8-857.4,847.8-895.7c0-195.6-147.7-372.1-362.5-435.4l-103.6-28.8l-859.3,859.3l-861.2,861.2l-103.6-103.6l-105.5-103.6l843.9-853.5c569.6-577.3,842-867,842-893.8c0-126.6-214.8-356.7-395.1-425.8l-88.3-32.6l-851.6,851.6l-851.6,851.6l-95.9-95.9c-51.8-51.8-95.9-103.6-95.9-115.1c0-9.6,377.9-397,842-861.2l840.1-840.1l-21.1-69c-11.5-38.4-55.6-105.5-97.8-149.6c-92.1-95.9-180.3-117-347.2-86.3c-237.8,44.1-435.4,174.5-1168.1,759.5C3484.5-2081.7,2715.4-1257,1627.9,227.6l-193.7,266.6l1287,1300.4C3430.8,2512,4015.8,3097,4025.4,3097C4033.1,3097,4163.5,2974.2,4313.1,2822.7z M7462.5,1608.6C8137.7,925.7,8699.7,350.3,8707.3,327.3c26.9-65.2,3.9-356.8-38.4-473.8c-49.9-147.7-147.7-306.9-274.3-445l-107.4-115.1l-937.9,874.6l-937.9,874.6l-76.7-118.9c-113.2-168.8-174.5-195.6-452.6-195.6c-203.3,1.9-237.8,7.7-425.8,71C5345,837.5,5182,904.7,5097.6,948.8c-86.3,42.2-164.9,72.9-172.6,69c-7.7-5.8-21.1-57.5-26.9-115.1c-40.3-395.1-441.1-644.5-1031.9-644.5c-107.4,0-228.2,9.6-270.4,23c-209.1,63.3-195.6,272.4,46,631c153.4,230.2,389.4,433.5,1051.1,907.2c293.4,209.1,1511.4,1028.1,1530.6,1028.1C6227.3,2847.6,6785.5,2289.5,7462.5,1608.6z M2514-1385.5l224.4-262.8l-249.4-249.3l-251.3-251.3l-153.4,153.4c-88.2,86.3-163,180.3-174.5,216.7c-26.9,82.5,5.8,220.6,82.5,341.4c57.5,90.2,258.9,314.6,283.9,314.6C2283.8-1122.7,2391.2-1241.6,2514-1385.5z M3183.4-2603.4l-245.5-245.5l-243.6,243.6l-245.5,245.5l243.6,243.6l245.5,245.5l243.6-243.6l245.5-245.5L3183.4-2603.4z M3906.5-2791.4c99.7-86.3,184.1-163,188-170.7c1.9-5.8-113.2-128.5-255.1-270.4l-258.9-258.9l-214.8,216.7l-216.7,214.8l249.3,249.3c243.6,245.5,249.3,247.4,287.7,212.9C3707-2616.9,3806.8-2703.2,3906.5-2791.4z M4395.6-3194.2c5.7-9.6,101.7-88.2,212.9-174.5l203.3-157.3l-61.4-49.9c-293.5-235.9-619.5-326.1-824.8-224.4c-165,80.5-172.6,59.5,124.7,356.7C4299.7-3194.2,4364.9-3146.2,4395.6-3194.2z"/></g></g>
</svg>