<svg height="512pt" viewBox="0 0 512 512" width="512pt" xmlns="http://www.w3.org/2000/svg"><path d="m146.847656 332.160156c-31.152344 2.140625-55.847656 28.152344-55.847656 59.839844 0 33.085938 26.914062 60 60 59.988281h17.578125c-1.664063 4.707031-2.578125 9.753907-2.578125 15.011719 0 24.8125 20.1875 45 45 45s45-20.1875 45-45c0-5.257812-.914062-10.304688-2.578125-15.011719h95.160156c-1.667969 4.707031-2.582031 9.753907-2.582031 15.011719 0 24.8125 20.1875 45 45 45s45-20.1875 45-45c0-5.257812-.914062-10.304688-2.578125-15h47.578125v-30h-330c-16.539062 0-30-13.457031-30-30s13.460938-30 30-30h293.523438l67.46875-271h-394.148438l-22.613281-91h-95.230469v30h71.769531c8.621094 34.699219 73.574219 296.109375 75.078125 302.160156zm79.152344 134.839844c0 8.269531-6.730469 15-15 15s-15-6.730469-15-15 6.730469-15 15-15 15 6.730469 15 15zm180 0c0 8.269531-6.730469 15-15 15s-15-6.730469-15-15 6.730469-15 15-15 15 6.730469 15 15zm-61.921875-226-11.328125 91h-63.503906l-11.324219-91zm-89.890625-30-11.203125-90h116.03125l-11.203125 90zm-15.171875 121h-61.285156l-22.613281-91h72.570312zm123.96875 0 11.328125-91h69.417969l-22.65625 91zm88.214844-121h-73.152344l11.203125-90h84.359375zm-238.449219-90 11.203125 90h-76.292969l-22.363281-90zm0 0"/></svg>